PathFileType	4	(X/Y/Z)	RBDS021static.trc
DataRate	CameraRate	NumFrames	NumMarkers	Units	OrigDataRate	OrigDataStartFrame	OrigNumFrames
150.000000	150.000000	4	48	mm	150.000000	75	150
Frame#	Time	L.Ankle			L.Ankle.Medial			L.ASIS			L.GTR			L.Heel.Bottom			L.Heel.Lateral			L.Heel.Top			L.HF			L.Iliac.Crest			L.Knee			L.Knee.Medial			L.MT1			L.MT2			L.MT5			L.PSIS			L.Shank.Bottom.Lateral			L.Shank.Bottom.Medial			L.Shank.Top.Lateral			L.Shank.Top.Medial			L.Thigh.Bottom.Lateral			L.Thigh.Bottom.Medial			L.Thigh.Top.Lateral			L.Thigh.Top.Medial			L.TT			R.Ankle			R.Ankle.Medial			R.ASIS			R.GTR			R.Heel.Bottom			R.Heel.Lateral			R.Heel.Top			R.HF			R.Iliac.Crest			R.Knee			R.Knee.Medial			R.MT1			R.MT2			R.MT5			R.PSIS			R.Shank.Bottom.Lateral			R.Shank.Bottom.Medial			R.Shank.Top.Lateral			R.Shank.Top.Medial			R.Thigh.Bottom.Lateral			R.Thigh.Bottom.Medial			R.Thigh.Top.Lateral			R.Thigh.Top.Medial			R.TT			
		X1	Y1	Z1	X2	Y2	Z2	X3	Y3	Z3	X4	Y4	Z4	X5	Y5	Z5	X6	Y6	Z6	X7	Y7	Z7	X8	Y8	Z8	X9	Y9	Z9	X10	Y10	Z10	X11	Y11	Z11	X12	Y12	Z12	X13	Y13	Z13	X14	Y14	Z14	X15	Y15	Z15	X16	Y16	Z16	X17	Y17	Z17	X18	Y18	Z18	X19	Y19	Z19	X20	Y20	Z20	X21	Y21	Z21	X22	Y22	Z22	X23	Y23	Z23	X24	Y24	Z24	X25	Y25	Z25	X26	Y26	Z26	X27	Y27	Z27	X28	Y28	Z28	X29	Y29	Z29	X30	Y30	Z30	X31	Y31	Z31	X32	Y32	Z32	X33	Y33	Z33	X34	Y34	Z34	X35	Y35	Z35	X36	Y36	Z36	X37	Y37	Z37	X38	Y38	Z38	X39	Y39	Z39	X40	Y40	Z40	X41	Y41	Z41	X42	Y42	Z42	X43	Y43	Z43	X44	Y44	Z44	X45	Y45	Z45	X46	Y46	Z46	X47	Y47	Z47	X48	Y48	Z48	

76	0.5	713.3619995117188	110.8785934448242	1037.767944335938	729.8084716796875	122.4335174560547	1118.91357421875	864.5478515625	1002.646545410156	1113.254760742188	788.9156494140625	920.45556640625	1038.746704101563	635.9686889648438	40.10415267944336	1086.036743164063	665.5471801757813	61.41662216186523	1041.32861328125	645.7001342773438	86.80947113037109	1086.012573242188	733.8305053710938	455.2671813964844	1020.260864257813	777.4155883789063	1061.751342773438	1062.842041015625	753.9121704101563	533.0911865234375	1028.094970703125	726.2978515625	504.0527954101563	1155.57470703125	851.7791748046875	57.23531341552734	1126.744262695313	863.9537353515625	62.54534912109375	1082.428466796875	821.5237426757813	47.73335266113281	1012.870727539063	680.666015625	1023.014282226563	1190.312255859375	710.9282836914063	183.2211151123047	1028.795288085938	668.7813720703125	186.7145233154297	1064.708740234375	704.8297119140625	262.478759765625	1015.090148925781	663.61962890625	266.3027954101563	1049.633178710938	762.112060546875	657.5635375976563	1021.889404296875	699.6923217773438	668.3932495117188	1055.279296875	774.3621826171875	766.8131103515625	1014.810485839844	714.7583618164063	777.4324340820313	1047.1748046875	788.851318359375	437.8955688476563	1074.261352539063	707.170654296875	103.2213287353516	1422.383544921875	731.77880859375	124.375732421875	1341.366455078125	866.4857788085938	1004.474365234375	1337.64013671875	794.2433471679688	919.2479248046875	1409.831420898438	635.1060180664063	40.53862380981445	1372.276611328125	662.7869262695313	59.52502059936523	1417.44140625	643.6814575195313	85.03266143798828	1372.895751953125	739.219970703125	461.5538024902344	1432.125854492188	796.544189453125	1059.700561523438	1384.837524414063	756.9605712890625	534.7109375	1419.422729492188	748.9912719726563	507.2484436035156	1287.066162109375	845.1079711914063	58.02547454833984	1333.599853515625	860.2225341796875	68.15547180175781	1384.906127929688	823.0947875976563	50.46305847167969	1446.072875976563	680.08349609375	1014.216979980469	1267.229370117188	694.4776000976563	186.714111328125	1426.557739257813	664.59326171875	193.9584503173828	1385.575561523438	695.1331176757813	270.8207702636719	1439.394775390625	660.7576904296875	273.6247253417969	1398.389282226563	765.5686645507813	662.8050537109375	1426.1796875	701.740478515625	665.6732177734375	1388.691284179688	766.6807861328125	772.3938598632813	1425.755859375	707.8658447265625	774.9168701171875	1387.853393554688	796.3770141601563	435.1849365234375	1374.876342773438	
77	0.5066666666666667	713.3544311523438	110.8591537475586	1037.794677734375	729.8010864257813	122.4170379638672	1118.90673828125	864.5478515625	1002.629211425781	1113.274169921875	788.9051513671875	920.4583740234375	1038.768676757813	635.9639892578125	40.09601593017578	1086.035278320313	665.54345703125	61.41158294677734	1041.328491210938	645.686279296875	86.80963134765625	1086.015747070313	733.8136596679688	455.2621459960938	1020.277099609375	777.3949584960938	1061.726196289063	1062.866333007813	753.895263671875	533.0904541015625	1028.105834960938	726.2861938476563	504.0483703613281	1155.589477539063	851.77685546875	57.22525405883789	1126.7431640625	863.9588623046875	62.54382705688477	1082.423950195313	821.5285034179688	47.73078155517578	1012.870361328125	680.6716918945313	1023.009582519531	1190.339721679688	710.9231567382813	183.2144470214844	1028.796997070313	668.7807006835938	186.7055511474609	1064.709594726563	704.8284301757813	262.473388671875	1015.101989746094	663.6123657226563	266.3014221191406	1049.625	762.111328125	657.5620727539063	1021.907043457031	699.6861572265625	668.3899536132813	1055.296997070313	774.3460693359375	766.8038940429688	1014.82421875	714.7445678710938	777.43310546875	1047.189819335938	788.8534545898438	437.891845703125	1074.2744140625	707.17138671875	103.2153244018555	1422.390258789063	731.7807006835938	124.3823852539063	1341.36328125	866.4993286132813	1004.470153808594	1337.649169921875	794.2688598632813	919.240478515625	1409.835815429688	635.1073608398438	40.5320930480957	1372.279174804688	662.7828369140625	59.51661682128906	1417.448120117188	643.677978515625	85.03366851806641	1372.893432617188	739.2298583984375	461.5554809570313	1432.135620117188	796.5541381835938	1059.692016601563	1384.859741210938	756.9658813476563	534.7093505859375	1419.445190429688	748.995361328125	507.2435607910156	1287.089599609375	845.1148071289063	58.02951431274414	1333.589111328125	860.226806640625	68.15122222900391	1384.91455078125	823.0909423828125	50.45544815063477	1446.072998046875	680.0926513671875	1014.231140136719	1267.244262695313	694.48046875	186.7060394287109	1426.561889648438	664.59619140625	193.9537200927734	1385.578247070313	695.1353759765625	270.8161926269531	1439.397338867188	660.7506713867188	273.6299133300781	1398.396728515625	765.5855712890625	662.79736328125	1426.196166992188	701.755615234375	665.6785278320313	1388.716796875	766.6973266601563	772.3967895507813	1425.783325195313	707.8833618164063	774.9114379882813	1387.872436523438	796.3754272460938	435.1835327148438	1374.89697265625	
78	0.5133333333333334	713.3456420898438	110.8827438354492	1037.780883789063	729.803466796875	122.4193954467773	1118.913208007813	864.5519409179688	1002.622192382813	1113.27880859375	788.8887329101563	920.4552001953125	1038.774536132813	635.9597778320313	40.10382461547852	1086.038208007813	665.5433959960938	61.41269683837891	1041.325439453125	645.681396484375	86.80613708496094	1086.014892578125	733.7921142578125	455.2642822265625	1020.280090332031	777.3787231445313	1061.714477539063	1062.882446289063	753.8726196289063	533.0888671875	1028.114501953125	726.27783203125	504.0334777832031	1155.59228515625	851.7861938476563	57.23151397705078	1126.742553710938	863.958740234375	62.54441070556641	1082.42138671875	821.5296630859375	47.74413681030273	1012.864929199219	680.673095703125	1023.00341796875	1190.367065429688	710.9143676757813	183.212158203125	1028.801879882813	668.7732543945313	186.7000885009766	1064.706420898438	704.8145751953125	262.4768676757813	1015.107482910156	663.5972290039063	266.2926330566406	1049.648315429688	762.0765380859375	657.5659790039063	1021.908935546875	699.6590576171875	668.3927001953125	1055.32470703125	774.3276977539063	766.8059692382813	1014.835876464844	714.7327270507813	777.4259033203125	1047.209716796875	788.8363647460938	437.9051513671875	1074.258422851563	707.1661376953125	103.2169342041016	1422.388427734375	731.7731323242188	124.3852691650391	1341.36474609375	866.5257568359375	1004.466491699219	1337.667602539063	794.2936401367188	919.2329711914063	1409.859375	635.1096801757813	40.53564453125	1372.277587890625	662.7847900390625	59.51869201660156	1417.444458007813	643.6712646484375	85.03506469726563	1372.90185546875	739.2276000976563	461.5522766113281	1432.158081054688	796.5790405273438	1059.681884765625	1384.862426757813	756.9779052734375	534.709716796875	1419.456665039063	749.0009155273438	507.236328125	1287.091796875	845.1134643554688	58.02318572998047	1333.604125976563	860.2174072265625	68.15025329589844	1384.917846679688	823.098388671875	50.45468139648438	1446.069702148438	680.1098022460938	1014.206481933594	1267.278198242188	694.4790649414063	186.7109375	1426.57177734375	664.592529296875	193.9555206298828	1385.583374023438	695.135498046875	270.8151245117188	1439.406127929688	660.7503051757813	273.6278381347656	1398.408447265625	765.6023559570313	662.8050537109375	1426.22119140625	701.7720336914063	665.6749267578125	1388.733764648438	766.7202758789063	772.3862915039063	1425.799560546875	707.9080200195313	774.9019165039063	1387.902099609375	796.3746948242188	435.1761474609375	1374.903076171875	
79	0.52	713.342041015625	110.8670272827148	1037.783081054688	729.808349609375	122.4075164794922	1118.904418945313	864.5465698242188	1002.610900878906	1113.292846679688	788.86865234375	920.4534301757813	1038.79541015625	635.9541015625	40.1031494140625	1086.039184570313	665.540283203125	61.39715194702148	1041.335083007813	645.6824340820313	86.8004150390625	1086.020263671875	733.761474609375	455.2641296386719	1020.288757324219	777.3626098632813	1061.698364257813	1062.9130859375	753.8331298828125	533.0830078125	1028.11962890625	726.2556762695313	504.0379028320313	1155.6123046875	851.7905883789063	57.22998046875	1126.737915039063	863.952880859375	62.5422477722168	1082.421020507813	821.524169921875	47.73104858398438	1012.866943359375	680.6730346679688	1022.999694824219	1190.395874023438	710.9088134765625	183.2038116455078	1028.807373046875	668.760009765625	186.6963348388672	1064.7236328125	704.8011474609375	262.4591674804688	1015.115600585938	663.5855102539063	266.2757263183594	1049.647094726563	762.0609741210938	657.5579833984375	1021.914672851563	699.654541015625	668.3851318359375	1055.3388671875	774.3052368164063	766.8018188476563	1014.855712890625	714.716064453125	777.4324340820313	1047.228881835938	788.8135986328125	437.9064025878906	1074.283935546875	707.1668090820313	103.2111511230469	1422.385131835938	731.7788696289063	124.3745193481445	1341.364379882813	866.542236328125	1004.451965332031	1337.680541992188	794.3193359375	919.2265014648438	1409.870483398438	635.0979614257813	40.52744674682617	1372.27392578125	662.7777099609375	59.51736068725586	1417.455322265625	643.672607421875	85.02758026123047	1372.890014648438	739.2469482421875	461.5510864257813	1432.161010742188	796.5930786132813	1059.673583984375	1384.875	756.9967651367188	534.7111206054688	1419.474243164063	748.9954833984375	507.2434387207031	1287.106079101563	845.103515625	58.023193359375	1333.597900390625	860.2258911132813	68.14778137207031	1384.910278320313	823.1009521484375	50.45646286010742	1446.07666015625	680.1185913085938	1014.197082519531	1267.304321289063	694.47705078125	186.6997985839844	1426.56982421875	664.5889282226563	193.9501495361328	1385.59521484375	695.1430053710938	270.8097534179688	1439.4091796875	660.7587890625	273.6228332519531	1398.415771484375	765.6299438476563	662.7962646484375	1426.224609375	701.7964477539063	665.6666259765625	1388.754638671875	766.7381591796875	772.3833618164063	1425.811279296875	707.92578125	774.9021606445313	1387.92236328125	796.3964233398438	435.1815795898438	1374.909423828125	
